<svg xmlns="http://www.w3.org/2000/svg" xmlns:xlink="http://www.w3.org/1999/xlink" width="500" zoomAndPan="magnify" viewBox="0 0 375 374.999991" height="500" preserveAspectRatio="xMidYMid meet" version="1.0"><defs><g/><clipPath id="ce3f1b3a17"><path d="M 47.472656 140 L 127.722656 140 L 127.722656 219.953125 L 47.472656 219.953125 Z M 47.472656 140 " clip-rule="nonzero"/></clipPath></defs><rect x="-37.5" width="450" fill="#ffffff" y="-37.499999" height="449.999989" fill-opacity="1"/><rect x="-37.5" width="450" fill="#ffffff" y="-37.499999" height="449.999989" fill-opacity="1"/><g clip-path="url(#ce3f1b3a17)"><path fill="#259922" d="M 79.433594 142.863281 C 84.320312 139.714844 91.019531 139.707031 95.898438 142.871094 C 100.566406 145.664062 103.523438 150.941406 103.605469 156.371094 C 107.492188 156.410156 111.378906 156.347656 115.265625 156.394531 C 117.355469 156.230469 119.332031 157.910156 119.449219 160.011719 C 122.085938 178.425781 124.714844 196.847656 127.296875 215.269531 C 127.839844 217.621094 125.792969 220.070312 123.367188 219.898438 C 99.554688 219.9375 75.734375 219.929688 51.914062 219.90625 C 49.5 220.0625 47.46875 217.644531 47.976562 215.296875 C 50.589844 196.886719 53.214844 178.464844 55.859375 160.058594 C 55.996094 157.972656 57.90625 156.246094 60.007812 156.394531 C 63.910156 156.339844 67.8125 156.414062 71.707031 156.386719 C 71.808594 150.949219 74.75 145.664062 79.433594 142.863281 Z M 79.589844 156.355469 C 84.972656 156.414062 90.351562 156.386719 95.734375 156.355469 C 95.519531 152.15625 92.003906 148.3125 87.660156 148.441406 C 83.328125 148.3125 79.800781 152.148438 79.589844 156.355469 Z M 79.589844 156.355469 " fill-opacity="1" fill-rule="nonzero"/></g><g fill="#ffffff" fill-opacity="1"><g transform="translate(62.318887, 209.663915)"><g><path d="M 26.4375 -17.140625 L 26.4375 -25 L 46.6875 -25 L 46.6875 -6.453125 C 44.738281 -4.546875 41.898438 -2.859375 38.171875 -1.390625 C 34.441406 0.0664062 30.644531 0.796875 26.78125 0.796875 C 21.90625 0.796875 17.65625 -0.222656 14.03125 -2.265625 C 10.40625 -4.316406 7.675781 -7.238281 5.84375 -11.03125 C 4.019531 -14.832031 3.109375 -18.96875 3.109375 -23.4375 C 3.109375 -28.0625 4.023438 -32.1875 5.859375 -35.8125 C 7.703125 -39.4375 10.347656 -42.273438 13.796875 -44.328125 C 17.253906 -46.390625 21.398438 -47.421875 26.234375 -47.421875 C 32.066406 -47.421875 36.609375 -46.207031 39.859375 -43.78125 C 43.117188 -41.351562 45.207031 -38.007812 46.125 -33.75 L 36.734375 -32 C 36.078125 -34.25 34.847656 -36.035156 33.046875 -37.359375 C 31.242188 -38.679688 28.972656 -39.34375 26.234375 -39.34375 C 22.171875 -39.34375 18.914062 -38.035156 16.46875 -35.421875 C 14.03125 -32.816406 12.8125 -28.960938 12.8125 -23.859375 C 12.8125 -18.316406 14.039062 -14.15625 16.5 -11.375 C 18.96875 -8.601562 22.191406 -7.21875 26.171875 -7.21875 C 28.128906 -7.21875 30.109375 -7.609375 32.109375 -8.390625 C 34.109375 -9.179688 35.800781 -10.117188 37.1875 -11.203125 L 37.1875 -17.140625 Z M 26.4375 -17.140625 "/></g></g></g><g fill="#000000" fill-opacity="1"><g transform="translate(124.4184, 213.10047)"><g><path d="M 2.265625 -18.671875 C 2.265625 -21.796875 2.65625 -24.515625 3.4375 -26.828125 C 4.21875 -29.148438 5.472656 -31.257812 7.203125 -33.15625 C 8.941406 -35.050781 10.90625 -36.394531 13.09375 -37.1875 C 15.28125 -37.988281 17.773438 -38.390625 20.578125 -38.390625 C 26.117188 -38.390625 30.554688 -36.664062 33.890625 -33.21875 C 37.234375 -29.78125 38.90625 -24.984375 38.90625 -18.828125 C 38.90625 -12.742188 37.242188 -7.976562 33.921875 -4.53125 C 30.597656 -1.082031 26.179688 0.640625 20.671875 0.640625 C 15.046875 0.640625 10.570312 -1.070312 7.25 -4.5 C 3.925781 -7.9375 2.265625 -12.660156 2.265625 -18.671875 Z M 10.125 -18.875 C 10.125 -14.613281 11.117188 -11.375 13.109375 -9.15625 C 15.097656 -6.945312 17.601562 -5.84375 20.625 -5.84375 C 23.675781 -5.84375 26.164062 -6.941406 28.09375 -9.140625 C 30.03125 -11.335938 31 -14.617188 31 -18.984375 C 31 -23.304688 30.050781 -26.53125 28.15625 -28.65625 C 26.257812 -30.789062 23.75 -31.859375 20.625 -31.859375 C 17.476562 -31.859375 14.941406 -30.785156 13.015625 -28.640625 C 11.085938 -26.492188 10.125 -23.238281 10.125 -18.875 Z M 10.125 -18.875 "/></g></g></g><g fill="#000000" fill-opacity="1"><g transform="translate(165.475352, 211.893985)"><g><path d="M 1.59375 -10.3125 L 11.21875 -11.765625 C 12.0625 -7.953125 14.632812 -6.046875 18.9375 -6.046875 C 21.050781 -6.046875 22.71875 -6.382812 23.9375 -7.0625 C 25.164062 -7.75 25.78125 -8.738281 25.78125 -10.03125 C 25.78125 -10.738281 25.523438 -11.332031 25.015625 -11.8125 C 24.503906 -12.300781 23.457031 -12.707031 21.875 -13.03125 C 14.164062 -14.75 9.289062 -16.300781 7.25 -17.6875 C 4.363281 -19.632812 2.921875 -22.351562 2.921875 -25.84375 C 2.921875 -28.957031 4.160156 -31.578125 6.640625 -33.703125 C 9.128906 -35.835938 12.984375 -36.90625 18.203125 -36.90625 C 23.117188 -36.90625 26.785156 -36.101562 29.203125 -34.5 C 31.617188 -32.90625 33.265625 -30.53125 34.140625 -27.375 L 25.140625 -25.71875 C 24.367188 -28.632812 22.097656 -30.09375 18.328125 -30.09375 C 14.003906 -30.09375 11.84375 -29.097656 11.84375 -27.109375 C 11.84375 -26.085938 12.566406 -25.296875 14.015625 -24.734375 C 15.460938 -24.179688 18.023438 -23.488281 21.703125 -22.65625 C 26.710938 -21.5 30.242188 -20.101562 32.296875 -18.46875 C 34.347656 -16.832031 35.375 -14.441406 35.375 -11.296875 C 35.375 -7.984375 33.992188 -5.128906 31.234375 -2.734375 C 28.484375 -0.347656 24.382812 0.84375 18.9375 0.84375 C 14.019531 0.84375 10.117188 -0.15625 7.234375 -2.15625 C 4.359375 -4.164062 2.476562 -6.882812 1.59375 -10.3125 Z M 1.59375 -10.3125 "/></g></g></g><g fill="#000000" fill-opacity="1"><g transform="translate(204.211122, 211.893985)"><g><path d="M 14.484375 -49.859375 L 14.484375 -31.5625 C 17.597656 -35.125 21.296875 -36.90625 25.578125 -36.90625 C 27.796875 -36.90625 29.789062 -36.5 31.5625 -35.6875 C 33.332031 -34.882812 34.648438 -33.84375 35.515625 -32.5625 C 36.390625 -31.28125 36.992188 -29.875 37.328125 -28.34375 C 37.660156 -26.8125 37.828125 -24.425781 37.828125 -21.1875 L 37.828125 0 L 28.265625 0 L 28.265625 -19.078125 C 28.265625 -22.847656 28.09375 -25.238281 27.75 -26.25 C 27.414062 -27.269531 26.78125 -28.082031 25.84375 -28.6875 C 24.914062 -29.289062 23.75 -29.59375 22.34375 -29.59375 C 20.78125 -29.59375 19.367188 -29.210938 18.109375 -28.453125 C 16.847656 -27.691406 15.925781 -26.535156 15.34375 -24.984375 C 14.769531 -23.429688 14.484375 -21.132812 14.484375 -18.09375 L 14.484375 0 L 4.9375 0 L 4.9375 -49.859375 Z M 14.484375 -49.859375 "/></g></g></g><g fill="#000000" fill-opacity="1"><g transform="translate(246.755853, 211.893985)"><g><path d="M 2.78125 -18.609375 C 2.78125 -21.753906 3.554688 -24.8125 5.109375 -27.78125 C 6.671875 -30.757812 8.890625 -33.023438 11.765625 -34.578125 C 14.648438 -36.128906 17.859375 -36.90625 21.390625 -36.90625 C 26.859375 -36.90625 31.335938 -35.128906 34.828125 -31.578125 C 38.316406 -28.023438 40.0625 -23.566406 40.0625 -18.203125 C 40.0625 -12.710938 38.289062 -8.164062 34.75 -4.5625 C 31.21875 -0.957031 26.789062 0.84375 21.46875 0.84375 C 18.15625 0.84375 14.988281 0.0859375 11.96875 -1.421875 C 8.957031 -2.941406 6.671875 -5.132812 5.109375 -8 C 3.554688 -10.875 2.78125 -14.410156 2.78125 -18.609375 Z M 12.625 -18.03125 C 12.625 -14.46875 13.46875 -11.734375 15.15625 -9.828125 C 16.84375 -7.921875 18.945312 -6.96875 21.46875 -6.96875 C 23.914062 -6.96875 25.988281 -7.921875 27.6875 -9.828125 C 29.382812 -11.734375 30.234375 -14.488281 30.234375 -18.09375 C 30.234375 -21.632812 29.382812 -24.351562 27.6875 -26.25 C 25.988281 -28.15625 23.914062 -29.109375 21.46875 -29.109375 C 18.945312 -29.109375 16.84375 -28.15625 15.15625 -26.25 C 13.46875 -24.351562 12.625 -21.613281 12.625 -18.03125 Z M 12.625 -18.03125 "/></g></g></g><g fill="#000000" fill-opacity="1"><g transform="translate(289.300584, 211.893985)"><g><path d="M 4.734375 -36.15625 L 13.640625 -36.15625 L 13.640625 -30.78125 C 14.816406 -32.59375 16.390625 -34.066406 18.359375 -35.203125 C 20.335938 -36.335938 22.503906 -36.90625 24.859375 -36.90625 C 29.097656 -36.90625 32.679688 -35.269531 35.609375 -32 C 38.535156 -28.738281 40 -24.160156 40 -18.265625 C 40 -12.210938 38.519531 -7.515625 35.5625 -4.171875 C 32.601562 -0.828125 29.015625 0.84375 24.796875 0.84375 C 22.796875 0.84375 20.992188 0.445312 19.390625 -0.34375 C 17.796875 -1.132812 16.09375 -2.503906 14.28125 -4.453125 L 14.28125 13.703125 L 4.734375 13.703125 Z M 14.21875 -18.671875 C 14.21875 -14.640625 15.015625 -11.644531 16.609375 -9.6875 C 18.210938 -7.738281 20.179688 -6.765625 22.515625 -6.765625 C 24.734375 -6.765625 26.570312 -7.65625 28.03125 -9.4375 C 29.5 -11.21875 30.234375 -14.140625 30.234375 -18.203125 C 30.234375 -21.984375 29.476562 -24.789062 27.96875 -26.625 C 26.46875 -28.46875 24.570312 -29.390625 22.28125 -29.390625 C 19.96875 -29.390625 18.046875 -28.488281 16.515625 -26.6875 C 14.984375 -24.882812 14.21875 -22.210938 14.21875 -18.671875 Z M 14.21875 -18.671875 "/></g></g></g></svg>